<svg width="20" height="20" viewBox="0 0 20 20" fill="none" xmlns="http://www.w3.org/2000/svg">
<path fill-rule="evenodd" clip-rule="evenodd" d="M18.3793 14.3824L16.127 12.5731C15.6101 12.167 14.8716 12.1301 14.3547 12.5362L12.4347 13.9393C12.2132 14.1239 11.8808 14.087 11.6593 13.8654L8.77931 11.2808L6.19469 8.40083C5.97315 8.1793 5.97315 7.88391 6.12085 7.62545L7.52392 5.70545C7.93008 5.18853 7.89315 4.45007 7.487 3.93314L5.67777 1.68083C5.12392 1.01622 4.127 0.942373 3.49931 1.57006L1.57931 3.49006C1.28392 3.78545 1.13623 4.1916 1.13623 4.59776C1.32085 8.36391 3.01931 11.9454 5.53008 14.4562C8.04085 16.967 11.6224 18.6654 15.3885 18.8501C15.7947 18.887 16.2008 18.7024 16.4962 18.407L18.4162 16.487C19.1178 15.9331 19.0808 14.8993 18.3793 14.3824V14.3824Z" fill="#0B5CAB"/>
</svg>
