<svg fill="none" height="20" viewBox="0 0 20 20" width="20" xmlns="http://www.w3.org/2000/svg"><path clip-rule="evenodd" d="m9.6109 11.8835c.22154.2215.5538.2215.7754 0l8.3446-7.75387c.1477-.29538.1108-.77538-.48-.77538l-16.50462.03692c-.44307 0-.812306.40616-.48.77539zm9.2677-4.72617c0-.36924-.4431-.59077-.7385-.33231l-6.5354 6.01848c-.443.4061-.9969.6277-1.5876.6277-.59082 0-1.14466-.2216-1.58774-.5908l-6.49846-6.05538c-.29539-.25846-.73846-.07385-.73846.33231-.03693-.11077-.03693 8.38157-.03693 8.38157 0 .8123.66462 1.4769 1.47693 1.4769h14.76926c.8123 0 1.4769-.6646 1.4769-1.4769z" fill="#0b5cab" fill-rule="evenodd"/></svg>