<svg width="20" height="20" viewBox="0 0 20 20" fill="none" xmlns="http://www.w3.org/2000/svg">
<path fill-rule="evenodd" clip-rule="evenodd" d="M18.8599 2.61584C18.8599 1.80353 18.1953 1.13892 17.383 1.13892H2.61376C1.80146 1.13892 1.13684 1.80353 1.13684 2.61584V12.8435C1.13684 13.6558 1.80146 14.3205 2.61376 14.3205H17.383C18.1953 14.3205 18.8599 13.6558 18.8599 12.8435V2.61584ZM16.6445 11.5512C16.6445 11.8466 16.3861 12.1051 16.0907 12.1051H3.90607C3.61069 12.1051 3.35223 11.8466 3.35223 11.5512V3.90815C3.35223 3.61276 3.61069 3.3543 3.90607 3.3543H16.0907C16.3861 3.3543 16.6445 3.61276 16.6445 3.90815V11.5512ZM7.41376 16.6466C6.60146 16.6466 5.93684 17.3112 5.93684 18.1235V18.3081C5.93684 18.6035 6.1953 18.862 6.49069 18.862H13.5061C13.8015 18.862 14.0599 18.6035 14.0599 18.3081V18.1235C14.0599 17.3112 13.3953 16.6466 12.583 16.6466H7.41376ZM7.04453 10.2589H5.53069C5.30915 10.2589 5.16146 10.0743 5.16146 9.88968V5.56969C5.16146 5.34815 5.30915 5.20045 5.53069 5.20045H7.04453C7.22915 5.20045 7.41376 5.34815 7.41376 5.56969V9.88968C7.41376 10.1112 7.22915 10.2589 7.04453 10.2589ZM14.4661 10.2589H9.5553C9.33376 10.2589 9.18607 10.1112 9.18607 9.88968V5.56969C9.18607 5.34815 9.33376 5.20045 9.5553 5.20045H14.4661C14.6507 5.20045 14.8353 5.34815 14.8353 5.56969V9.88968C14.8353 10.1112 14.6507 10.2589 14.4661 10.2589Z" fill="#0B5CAB"/>
</svg>
